<svg width="131" height="26" viewBox="0 0 131 26" fill="none" xmlns="http://www.w3.org/2000/svg">
<path d="M4.85439 25L0.590393 3.54879H4.49359L6.36319 14.3728C6.53813 15.5099 6.71306 16.6579 6.88799 17.8168C7.08479 18.9539 7.25973 20.0909 7.41279 21.228H7.54399C7.78453 20.0909 8.01413 18.9539 8.23279 17.8168C8.47333 16.6579 8.71386 15.5099 8.95439 14.3728L11.5784 3.54879H14.8912L17.5152 14.3728C17.7557 15.488 17.9963 16.6251 18.2368 17.784C18.4773 18.9211 18.7179 20.0691 18.9584 21.228H19.0896C19.2645 20.0691 19.4395 18.9211 19.6144 17.784C19.7893 16.6469 19.9533 15.5099 20.1064 14.3728L21.976 3.54879H25.6168L21.5168 25H16.7936L14.1368 13.7168C13.9619 12.8859 13.7869 12.0549 13.612 11.224C13.4589 10.3931 13.3168 9.57305 13.1856 8.76399H13.0544C12.9013 9.57305 12.7373 10.3931 12.5624 11.224C12.4093 12.0549 12.2453 12.8859 12.0704 13.7168L9.47919 25H4.85439Z" fill="black"/>
<path d="M28.628 25V8.89519H32.4V25H28.628ZM30.5304 6.07439C29.8525 6.07439 29.3059 5.87759 28.8904 5.48399C28.4749 5.09039 28.2672 4.56559 28.2672 3.90959C28.2672 3.27545 28.4749 2.76159 28.8904 2.36799C29.3059 1.97439 29.8525 1.77759 30.5304 1.77759C31.2083 1.77759 31.7549 1.97439 32.1704 2.36799C32.5859 2.76159 32.7936 3.27545 32.7936 3.90959C32.7936 4.56559 32.5859 5.09039 32.1704 5.48399C31.7549 5.87759 31.2083 6.07439 30.5304 6.07439Z" fill="black"/>
<path d="M43.8052 25.3936C42.362 25.3936 40.9625 25.1203 39.6068 24.5736C38.2729 24.0269 37.0921 23.2507 36.0644 22.2448L38.2948 19.6536C39.0601 20.3752 39.9348 20.9656 40.9188 21.4248C41.9028 21.8621 42.8868 22.0808 43.8708 22.0808C45.0953 22.0808 46.0246 21.8293 46.6588 21.3264C47.2929 20.8235 47.61 20.1565 47.61 19.3256C47.61 18.4291 47.2929 17.784 46.6588 17.3904C46.0465 16.9968 45.2593 16.5923 44.2972 16.1768L41.3452 14.8976C40.6454 14.5915 39.9566 14.1979 39.2788 13.7168C38.6228 13.2357 38.0761 12.6235 37.6388 11.88C37.2233 11.1365 37.0156 10.24 37.0156 9.19039C37.0156 8.05332 37.3217 7.03652 37.934 6.13999C38.5681 5.22159 39.4209 4.49999 40.4924 3.97519C41.5857 3.42852 42.8321 3.15519 44.2316 3.15519C45.478 3.15519 46.6806 3.40665 47.8396 3.90959C48.9985 4.39065 49.9934 5.04665 50.8244 5.87759L48.8892 8.30479C48.2113 7.73625 47.4897 7.28799 46.7244 6.95999C45.9809 6.63199 45.15 6.46799 44.2316 6.46799C43.2257 6.46799 42.4057 6.69759 41.7716 7.15679C41.1593 7.59412 40.8532 8.20639 40.8532 8.99359C40.8532 9.54025 41.0062 9.99945 41.3124 10.3712C41.6404 10.7211 42.0668 11.0272 42.5916 11.2896C43.1164 11.5301 43.674 11.7707 44.2644 12.0112L47.1836 13.2248C48.4518 13.7715 49.4905 14.4931 50.2996 15.3896C51.1086 16.2643 51.5132 17.4779 51.5132 19.0304C51.5132 20.1893 51.207 21.2499 50.5948 22.212C49.9825 23.1741 49.0969 23.9504 47.938 24.5408C46.8009 25.1093 45.4233 25.3936 43.8052 25.3936Z" fill="black"/>
<path d="M61.8098 25.3936C60.3447 25.3936 59.0218 25.0656 57.841 24.4096C56.6821 23.7317 55.7527 22.7696 55.053 21.5232C54.3751 20.2549 54.0362 18.7352 54.0362 16.964C54.0362 15.1709 54.4079 13.6512 55.1514 12.4048C55.8949 11.1365 56.8789 10.1744 58.1034 9.51839C59.3498 8.84052 60.6837 8.50159 62.105 8.50159C63.1327 8.50159 64.0293 8.67652 64.7946 9.02639C65.5599 9.37625 66.2378 9.80265 66.8282 10.3056L64.9914 12.7656C64.5759 12.3939 64.1495 12.1096 63.7122 11.9128C63.2749 11.6941 62.8047 11.5848 62.3018 11.5848C61.0117 11.5848 59.9511 12.0768 59.1202 13.0608C58.3111 14.0448 57.9066 15.3459 57.9066 16.964C57.9066 18.5603 58.3002 19.8504 59.0874 20.8344C59.8965 21.8184 60.9351 22.3104 62.2034 22.3104C62.8375 22.3104 63.4279 22.1792 63.9746 21.9168C64.5431 21.6325 65.057 21.3045 65.5162 20.9328L67.0578 23.4256C66.3143 24.0816 65.4834 24.5736 64.565 24.9016C63.6466 25.2296 62.7282 25.3936 61.8098 25.3936Z" fill="black"/>
<path d="M70.2366 25V1.84319H74.0086V7.81279L73.8774 10.9288C74.5552 10.2947 75.3096 9.73705 76.1406 9.25599C76.9715 8.75305 77.9336 8.50159 79.027 8.50159C80.7544 8.50159 82.0118 9.05919 82.799 10.1744C83.5862 11.2896 83.9798 12.864 83.9798 14.8976V25H80.2078V15.3896C80.2078 14.0557 80.011 13.1155 79.6174 12.5688C79.2238 12.0221 78.5787 11.7488 77.6822 11.7488C76.9824 11.7488 76.3592 11.9237 75.8126 12.2736C75.2878 12.6016 74.6864 13.0936 74.0086 13.7496V25H70.2366Z" fill="black"/>
<path d="M95.1192 25.3936C93.7854 25.3936 92.539 25.0656 91.38 24.4096C90.2211 23.7317 89.2808 22.7696 88.5592 21.5232C87.8376 20.2549 87.4768 18.7352 87.4768 16.964C87.4768 15.1709 87.8376 13.6512 88.5592 12.4048C89.2808 11.1365 90.2211 10.1744 91.38 9.51839C92.539 8.84052 93.7854 8.50159 95.1192 8.50159C96.475 8.50159 97.7323 8.84052 98.8912 9.51839C100.05 10.1744 100.99 11.1365 101.712 12.4048C102.434 13.6512 102.794 15.1709 102.794 16.964C102.794 18.7352 102.434 20.2549 101.712 21.5232C100.99 22.7696 100.05 23.7317 98.8912 24.4096C97.7323 25.0656 96.475 25.3936 95.1192 25.3936ZM95.1192 22.3104C96.3 22.3104 97.2294 21.8184 97.9072 20.8344C98.5851 19.8504 98.924 18.5603 98.924 16.964C98.924 15.3459 98.5851 14.0448 97.9072 13.0608C97.2294 12.0768 96.3 11.5848 95.1192 11.5848C93.9384 11.5848 93.0091 12.0768 92.3312 13.0608C91.6752 14.0448 91.3472 15.3459 91.3472 16.964C91.3472 18.5603 91.6752 19.8504 92.3312 20.8344C93.0091 21.8184 93.9384 22.3104 95.1192 22.3104Z" fill="black"/>
<path d="M113.121 25.3936C111.787 25.3936 110.541 25.0656 109.382 24.4096C108.223 23.7317 107.282 22.7696 106.561 21.5232C105.839 20.2549 105.478 18.7352 105.478 16.964C105.478 15.1709 105.839 13.6512 106.561 12.4048C107.282 11.1365 108.223 10.1744 109.382 9.51839C110.541 8.84052 111.787 8.50159 113.121 8.50159C114.477 8.50159 115.734 8.84052 116.893 9.51839C118.052 10.1744 118.992 11.1365 119.714 12.4048C120.435 13.6512 120.796 15.1709 120.796 16.964C120.796 18.7352 120.435 20.2549 119.714 21.5232C118.992 22.7696 118.052 23.7317 116.893 24.4096C115.734 25.0656 114.477 25.3936 113.121 25.3936ZM113.121 22.3104C114.302 22.3104 115.231 21.8184 115.909 20.8344C116.587 19.8504 116.926 18.5603 116.926 16.964C116.926 15.3459 116.587 14.0448 115.909 13.0608C115.231 12.0768 114.302 11.5848 113.121 11.5848C111.94 11.5848 111.011 12.0768 110.333 13.0608C109.677 14.0448 109.349 15.3459 109.349 16.964C109.349 18.5603 109.677 19.8504 110.333 20.8344C111.011 21.8184 111.94 22.3104 113.121 22.3104Z" fill="black"/>
<path d="M128.203 25.3936C126.869 25.3936 125.918 24.9891 125.35 24.18C124.803 23.3709 124.53 22.2667 124.53 20.8672V1.84319H128.302V21.064C128.302 21.5232 128.389 21.8512 128.564 22.048C128.739 22.2229 128.925 22.3104 129.122 22.3104C129.209 22.3104 129.286 22.3104 129.351 22.3104C129.439 22.2885 129.559 22.2667 129.712 22.2448L130.204 25.0656C129.985 25.1531 129.701 25.2296 129.351 25.2952C129.023 25.3608 128.64 25.3936 128.203 25.3936Z" fill="black"/>
<path d="M98 3C98 4.65685 96.6569 6 95 6C93.3431 6 92 4.65685 92 3C92 1.34315 93.3431 0 95 0C96.6569 0 98 1.34315 98 3Z" fill="#09B451"/>
<path d="M116 3C116 4.65685 114.657 6 113 6C111.343 6 110 4.65685 110 3C110 1.34315 111.343 0 113 0C114.657 0 116 1.34315 116 3Z" fill="#09B451"/>
</svg>
