<svg width="131" height="25" viewBox="0 0 131 25" fill="none" xmlns="http://www.w3.org/2000/svg">
<path d="M4.8544 24L0.5904 2.5488H4.4936L6.3632 13.3728C6.53813 14.5099 6.71307 15.6579 6.888 16.8168C7.0848 17.9539 7.25973 19.0909 7.4128 20.228H7.544C7.78453 19.0909 8.01413 17.9539 8.2328 16.8168C8.47333 15.6579 8.71387 14.5099 8.9544 13.3728L11.5784 2.5488H14.8912L17.5152 13.3728C17.7557 14.488 17.9963 15.6251 18.2368 16.784C18.4773 17.9211 18.7179 19.0691 18.9584 20.228H19.0896C19.2645 19.0691 19.4395 17.9211 19.6144 16.784C19.7893 15.6469 19.9533 14.5099 20.1064 13.3728L21.976 2.5488H25.6168L21.5168 24H16.7936L14.1368 12.7168C13.9619 11.8859 13.7869 11.0549 13.612 10.224C13.4589 9.39307 13.3168 8.57307 13.1856 7.764H13.0544C12.9013 8.57307 12.7373 9.39307 12.5624 10.224C12.4093 11.0549 12.2453 11.8859 12.0704 12.7168L9.4792 24H4.8544ZM28.628 24V7.8952H32.4V24H28.628ZM30.5304 5.0744C29.8525 5.0744 29.3059 4.8776 28.8904 4.484C28.4749 4.0904 28.2672 3.5656 28.2672 2.9096C28.2672 2.27547 28.4749 1.7616 28.8904 1.368C29.3059 0.9744 29.8525 0.7776 30.5304 0.7776C31.2083 0.7776 31.7549 0.9744 32.1704 1.368C32.5859 1.7616 32.7936 2.27547 32.7936 2.9096C32.7936 3.5656 32.5859 4.0904 32.1704 4.484C31.7549 4.8776 31.2083 5.0744 30.5304 5.0744ZM43.8052 24.3936C42.362 24.3936 40.9625 24.1203 39.6068 23.5736C38.2729 23.0269 37.0921 22.2507 36.0644 21.2448L38.2948 18.6536C39.0601 19.3752 39.9348 19.9656 40.9188 20.4248C41.9028 20.8621 42.8868 21.0808 43.8708 21.0808C45.0953 21.0808 46.0246 20.8293 46.6588 20.3264C47.2929 19.8235 47.61 19.1565 47.61 18.3256C47.61 17.4291 47.2929 16.784 46.6588 16.3904C46.0465 15.9968 45.2593 15.5923 44.2972 15.1768L41.3452 13.8976C40.6454 13.5915 39.9566 13.1979 39.2788 12.7168C38.6228 12.2357 38.0761 11.6235 37.6388 10.88C37.2233 10.1365 37.0156 9.24 37.0156 8.1904C37.0156 7.05333 37.3217 6.03653 37.934 5.14C38.5681 4.2216 39.4209 3.5 40.4924 2.9752C41.5857 2.42853 42.8321 2.1552 44.2316 2.1552C45.478 2.1552 46.6806 2.40667 47.8396 2.9096C48.9985 3.39067 49.9934 4.04667 50.8244 4.8776L48.8892 7.3048C48.2113 6.73627 47.4897 6.288 46.7244 5.96C45.9809 5.632 45.15 5.468 44.2316 5.468C43.2257 5.468 42.4057 5.6976 41.7716 6.1568C41.1593 6.59413 40.8532 7.2064 40.8532 7.9936C40.8532 8.54027 41.0062 8.99947 41.3124 9.3712C41.6404 9.72107 42.0668 10.0272 42.5916 10.2896C43.1164 10.5301 43.674 10.7707 44.2644 11.0112L47.1836 12.2248C48.4518 12.7715 49.4905 13.4931 50.2996 14.3896C51.1086 15.2643 51.5132 16.4779 51.5132 18.0304C51.5132 19.1893 51.207 20.2499 50.5948 21.212C49.9825 22.1741 49.0969 22.9504 47.938 23.5408C46.8009 24.1093 45.4233 24.3936 43.8052 24.3936ZM61.8098 24.3936C60.3447 24.3936 59.0218 24.0656 57.841 23.4096C56.6821 22.7317 55.7527 21.7696 55.053 20.5232C54.3751 19.2549 54.0362 17.7352 54.0362 15.964C54.0362 14.1709 54.4079 12.6512 55.1514 11.4048C55.8949 10.1365 56.8789 9.1744 58.1034 8.5184C59.3498 7.84053 60.6837 7.5016 62.105 7.5016C63.1327 7.5016 64.0293 7.67653 64.7946 8.0264C65.5599 8.37627 66.2378 8.80267 66.8282 9.3056L64.9914 11.7656C64.5759 11.3939 64.1495 11.1096 63.7122 10.9128C63.2749 10.6941 62.8047 10.5848 62.3018 10.5848C61.0117 10.5848 59.9511 11.0768 59.1202 12.0608C58.3111 13.0448 57.9066 14.3459 57.9066 15.964C57.9066 17.5603 58.3002 18.8504 59.0874 19.8344C59.8965 20.8184 60.9351 21.3104 62.2034 21.3104C62.8375 21.3104 63.4279 21.1792 63.9746 20.9168C64.5431 20.6325 65.057 20.3045 65.5162 19.9328L67.0578 22.4256C66.3143 23.0816 65.4834 23.5736 64.565 23.9016C63.6466 24.2296 62.7282 24.3936 61.8098 24.3936ZM70.2366 24V0.8432H74.0086V6.8128L73.8774 9.9288C74.5553 9.29467 75.3097 8.73707 76.1406 8.256C76.9715 7.75307 77.9337 7.5016 79.027 7.5016C80.7545 7.5016 82.0118 8.0592 82.799 9.1744C83.5862 10.2896 83.9798 11.864 83.9798 13.8976V24H80.2078V14.3896C80.2078 13.0557 80.011 12.1155 79.6174 11.5688C79.2238 11.0221 78.5787 10.7488 77.6822 10.7488C76.9825 10.7488 76.3593 10.9237 75.8126 11.2736C75.2878 11.6016 74.6865 12.0936 74.0086 12.7496V24H70.2366ZM95.1192 24.3936C93.7854 24.3936 92.539 24.0656 91.38 23.4096C90.2211 22.7317 89.2808 21.7696 88.5592 20.5232C87.8376 19.2549 87.4768 17.7352 87.4768 15.964C87.4768 14.1709 87.8376 12.6512 88.5592 11.4048C89.2808 10.1365 90.2211 9.1744 91.38 8.5184C92.539 7.84053 93.7854 7.5016 95.1192 7.5016C96.475 7.5016 97.7323 7.84053 98.8912 8.5184C100.05 9.1744 100.99 10.1365 101.712 11.4048C102.434 12.6512 102.794 14.1709 102.794 15.964C102.794 17.7352 102.434 19.2549 101.712 20.5232C100.99 21.7696 100.05 22.7317 98.8912 23.4096C97.7323 24.0656 96.475 24.3936 95.1192 24.3936ZM95.1192 21.3104C96.3 21.3104 97.2294 20.8184 97.9072 19.8344C98.5851 18.8504 98.924 17.5603 98.924 15.964C98.924 14.3459 98.5851 13.0448 97.9072 12.0608C97.2294 11.0768 96.3 10.5848 95.1192 10.5848C93.9384 10.5848 93.0091 11.0768 92.3312 12.0608C91.6752 13.0448 91.3472 14.3459 91.3472 15.964C91.3472 17.5603 91.6752 18.8504 92.3312 19.8344C93.0091 20.8184 93.9384 21.3104 95.1192 21.3104ZM113.121 24.3936C111.787 24.3936 110.541 24.0656 109.382 23.4096C108.223 22.7317 107.282 21.7696 106.561 20.5232C105.839 19.2549 105.478 17.7352 105.478 15.964C105.478 14.1709 105.839 12.6512 106.561 11.4048C107.282 10.1365 108.223 9.1744 109.382 8.5184C110.541 7.84053 111.787 7.5016 113.121 7.5016C114.477 7.5016 115.734 7.84053 116.893 8.5184C118.052 9.1744 118.992 10.1365 119.714 11.4048C120.435 12.6512 120.796 14.1709 120.796 15.964C120.796 17.7352 120.435 19.2549 119.714 20.5232C118.992 21.7696 118.052 22.7317 116.893 23.4096C115.734 24.0656 114.477 24.3936 113.121 24.3936ZM113.121 21.3104C114.302 21.3104 115.231 20.8184 115.909 19.8344C116.587 18.8504 116.926 17.5603 116.926 15.964C116.926 14.3459 116.587 13.0448 115.909 12.0608C115.231 11.0768 114.302 10.5848 113.121 10.5848C111.94 10.5848 111.011 11.0768 110.333 12.0608C109.677 13.0448 109.349 14.3459 109.349 15.964C109.349 17.5603 109.677 18.8504 110.333 19.8344C111.011 20.8184 111.94 21.3104 113.121 21.3104ZM128.203 24.3936C126.869 24.3936 125.918 23.9891 125.35 23.18C124.803 22.3709 124.53 21.2667 124.53 19.8672V0.8432H128.302V20.064C128.302 20.5232 128.389 20.8512 128.564 21.048C128.739 21.2229 128.925 21.3104 129.122 21.3104C129.209 21.3104 129.286 21.3104 129.351 21.3104C129.439 21.2885 129.559 21.2667 129.712 21.2448L130.204 24.0656C129.985 24.1531 129.701 24.2296 129.351 24.2952C129.023 24.3608 128.64 24.3936 128.203 24.3936Z" fill="white"/>
</svg>
